<svg width="56" height="49" viewBox="0 0 56 49" fill="none" xmlns="http://www.w3.org/2000/svg">
<path d="M14.327 0V5.01128C14.327 7.09043 13.0629 8.90303 11.272 9.7027C10.6926 9.96926 10.0079 10.1292 9.27044 10.1292C6.47877 10.1292 4.21384 7.8368 4.21384 5.01128V0H0V4.95797C0 5.11791 0 5.27784 0 5.49109C0.052673 8.52985 1.47484 11.6752 4.16116 13.1146L4.21384 13.168C7.0055 14.6607 10.4819 14.6607 13.3789 13.5944C13.695 13.4878 14.011 13.3279 14.327 13.168C16.9607 11.6752 18.3829 8.52985 18.4355 5.5444C18.4355 5.38447 18.4355 5.17122 18.4355 5.01128H18.4882V0H14.327Z" transform="translate(0 0.00732422)" fill="#009EE2"/>
<path d="M18.4882 9.38953C18.4882 9.22959 18.4882 9.06966 18.4882 8.85641C18.4355 5.87096 17.066 2.72558 14.327 1.23286L14.2744 1.17955C11.4827 -0.313174 8.00629 -0.313173 5.10928 0.753057C4.79324 0.859681 4.4772 1.01961 4.16116 1.17955C1.52752 2.67227 0.105346 5.81765 0.052673 8.8031C0.052673 8.96303 0.052673 9.17628 0.052673 9.33621H0V11.522V15.9468V17.173V19.2522C0 19.4121 0 19.572 0 19.7853C0.052673 22.824 1.42217 25.9694 4.16116 27.4088L4.21384 27.4621C7.0055 28.9549 10.4819 28.9549 13.3789 27.8886C13.695 27.782 14.011 27.6221 14.327 27.4621C16.9607 25.9694 18.3829 22.824 18.4355 19.8386C18.4355 19.6787 18.4355 19.4654 18.4355 19.3055H18.4882V17.1197V12.9081V11.4687V9.38953ZM14.5904 19.3588C14.5904 21.4912 13.3263 23.3038 11.5354 24.0502C10.9033 24.3168 10.2186 24.4767 9.48113 24.4767C6.68947 24.4767 4.42453 22.1843 4.42453 19.3588V12.9614V9.38953C4.42453 7.31038 5.68868 5.49778 7.47956 4.69811C8.11164 4.43155 8.79638 4.27162 9.53381 4.27162C12.3255 4.27162 14.5904 6.56401 14.5904 9.38953V16.0002V19.3588Z" transform="translate(0 20.3584)" fill="#F2F2F2"/>
<path d="M4.16117 14.4008V9.38953C4.16117 7.31038 5.42531 5.49778 7.2162 4.69811C7.84827 4.43155 8.53302 4.27162 9.27044 4.27162C12.0621 4.27162 14.327 6.56401 14.327 9.38953V14.3475H18.4882V9.38953C18.4882 9.38953 18.4882 9.06966 18.4882 8.85641C18.4355 5.81765 17.066 2.67227 14.327 1.23286L14.2744 1.17955C11.4827 -0.313175 8.00629 -0.313172 5.10928 0.753058C4.79324 0.859681 4.4772 1.01961 4.16117 1.17955C1.52752 2.67227 0.105346 5.81765 0.052673 8.8031C0.052673 8.96303 0.052673 9.17628 0.052673 9.33622L8.03726e-07 14.2942H4.16117V14.4008Z" transform="translate(36.8184 34.5991)" fill="#009EE2"/>
<path d="M8.03726e-07 19.3588C8.03726e-07 19.5187 8.03726e-07 19.6787 8.03726e-07 19.8919C0.0526738 22.9307 1.42217 26.076 4.16117 27.5154L4.21384 27.5688C7.00551 29.0615 10.4819 29.0615 13.3789 27.9953C13.695 27.8886 14.011 27.7287 14.327 27.5688C16.9607 26.076 18.3829 22.9307 18.4355 19.9452C18.4355 19.7853 18.4355 19.572 18.4355 19.4121H18.4882V17.2263V12.8015V11.5753V9.49615C18.4882 9.33621 18.4882 9.17628 18.4882 8.96303C18.4355 5.87096 17.066 2.67227 14.327 1.23286L14.2744 1.17955C11.4827 -0.313174 8.00629 -0.313174 5.10928 0.753057C4.79324 0.85968 4.4772 1.01961 4.16117 1.17955C1.52752 2.67227 0.105346 5.81765 0.052673 8.8031C0.052673 8.96303 0.052673 9.17628 0.052673 9.33621H8.03726e-07V11.522V15.7336V17.173V19.3588ZM3.8978 9.33621C3.8978 7.20375 5.16195 5.39116 6.95283 4.6448C7.58491 4.37824 8.26966 4.21831 9.00708 4.21831C11.7987 4.21831 14.0637 6.5107 14.0637 9.33621V15.7336V19.3055C14.0637 21.3846 12.7995 23.1972 11.0087 23.9969C10.3766 24.2634 9.69183 24.4234 8.9544 24.4234C6.16274 24.4234 3.8978 22.131 3.8978 19.3055V12.6948V9.33621Z" transform="translate(36.8184)" fill="#F2F2F2"/>
<path d="M0.895441 -4.06735e-07H3.26572C3.73978 -4.06735e-07 4.16116 0.426492 4.16116 0.906296V26.7624C4.16116 27.2422 3.73978 27.6687 3.26572 27.6687H0.895441C0.421384 27.6687 0 27.2422 0 26.7624V0.906296C0.052673 0.426492 0.421384 -4.06735e-07 0.895441 -4.06735e-07Z" transform="translate(25.5459 10.6621)" fill="#F2F2F2"/>
</svg>
