<svg width="405" height="232" viewBox="0 0 405 232" fill="none" xmlns="http://www.w3.org/2000/svg">
<path d="M248.106 179.948C275.437 179.948 297.593 157.793 297.593 130.462C297.593 103.132 275.437 80.9758 248.106 80.9758C220.776 80.9758 198.62 103.132 198.62 130.462C198.62 157.793 220.776 179.948 248.106 179.948Z" fill="#99B9EE"/>
<path d="M248.106 173.261C271.744 173.261 290.905 154.698 290.905 131.799C290.905 108.901 271.744 90.3379 248.106 90.3379C224.469 90.3379 205.307 108.901 205.307 131.799C205.307 154.698 224.469 173.261 248.106 173.261Z" fill="#E0E9F8"/>
<path d="M29.2436 70.2347L24.3161 69.9848C24.1733 69.9848 24.0662 69.8419 24.0662 69.6991L24.3161 64.8073C24.3161 64.7359 24.3518 64.6645 24.3875 64.6288C24.4232 64.5931 24.4946 64.5574 24.5661 64.5574L29.4578 64.8073C29.6007 64.8073 29.7078 64.9501 29.7078 65.093L29.5293 69.9848C29.5293 70.0562 29.4936 70.1276 29.4578 70.1633C29.3864 70.199 29.315 70.2347 29.2436 70.2347ZM24.6375 69.4492L28.9937 69.6991L29.2436 65.3429L24.8874 65.093L24.6375 69.4492Z" fill="#347AF0"/>
<path d="M227.36 198.276L223.427 203.405L228.556 207.337L232.489 202.208L227.36 198.276Z" fill="#347AF0"/>
<path d="M332.713 40.7412C332.642 40.7412 332.606 40.7055 332.535 40.6698C332.463 40.6341 332.427 40.5627 332.427 40.4913L331.963 37.2777C331.928 37.1348 332.035 36.992 332.177 36.992L335.391 36.5278C335.462 36.5278 335.534 36.5278 335.605 36.5635C335.677 36.5992 335.712 36.6707 335.712 36.7421L336.177 39.9557C336.212 40.0985 336.105 40.2413 335.962 40.2413L332.749 40.7055C332.713 40.7412 332.713 40.7412 332.713 40.7412ZM332.535 37.4919L332.927 40.1699L335.605 39.7771L335.213 37.0991L332.535 37.4919Z" fill="#347AF0"/>
<path d="M161.928 69.7349C161.893 69.7349 161.857 69.7349 161.821 69.7349L158.786 68.5566C158.715 68.5209 158.679 68.4852 158.643 68.4138C158.608 68.3424 158.608 68.271 158.643 68.1995L159.822 65.1645C159.857 65.0217 160.036 64.9503 160.179 65.0217L163.214 66.2C163.357 66.2357 163.428 66.4142 163.356 66.557L162.178 69.5921C162.142 69.6635 162.107 69.6992 162.035 69.7349C162 69.7349 161.964 69.7349 161.928 69.7349ZM159.25 68.1638L161.785 69.1279L162.749 66.5928L160.214 65.6287L159.25 68.1638Z" fill="#347AF0"/>
<path d="M27.8865 223.701C27.8508 223.701 27.8151 223.701 27.7794 223.701L24.7443 222.523C24.6015 222.487 24.5301 222.309 24.6015 222.166L25.7798 219.131C25.8155 219.059 25.8512 219.024 25.9226 218.988C25.9941 218.952 26.0655 218.952 26.1369 218.988L29.1719 220.166C29.3148 220.202 29.3862 220.381 29.3148 220.523L28.1364 223.558C28.1007 223.63 28.065 223.666 27.9936 223.701C27.9579 223.701 27.9222 223.701 27.8865 223.701ZM25.2085 222.13L27.7437 223.094L28.7078 220.559L26.1726 219.595L25.2085 222.13Z" fill="#347AF0"/>
<path d="M280.225 9.78359C282.926 9.78359 285.117 7.59346 285.117 4.89179C285.117 2.19013 282.926 0 280.225 0C277.523 0 275.333 2.19013 275.333 4.89179C275.333 7.59346 277.523 9.78359 280.225 9.78359Z" fill="#347AF0"/>
<path d="M110.083 231.164C111.246 231.164 112.189 230.221 112.189 229.057C112.189 227.894 111.246 226.95 110.083 226.95C108.919 226.95 107.976 227.894 107.976 229.057C107.976 230.221 108.919 231.164 110.083 231.164Z" fill="#347AF0"/>
<path d="M390.058 111.511C391.221 111.511 392.165 110.568 392.165 109.405C392.165 108.241 391.221 107.298 390.058 107.298C388.894 107.298 387.951 108.241 387.951 109.405C387.951 110.568 388.894 111.511 390.058 111.511Z" fill="#347AF0"/>
<path d="M34.7423 19.567C34.6709 19.567 34.5637 19.5313 34.528 19.4599L31.2073 14.2468C31.1359 14.1396 31.1716 13.9611 31.2787 13.8897C31.3859 13.8183 31.5644 13.854 31.6358 13.9611L34.9208 19.1385C34.9922 19.2457 34.9565 19.4242 34.8494 19.4956C34.8137 19.5313 34.778 19.567 34.7423 19.567Z" fill="#347AF0"/>
<path d="M167.356 18.4958C167.32 18.4958 167.249 18.4958 167.213 18.4601L161.893 15.3893C161.75 15.3179 161.715 15.1393 161.786 15.0322C161.857 14.8894 162.036 14.8537 162.143 14.9251L167.463 17.9602C167.606 18.0316 167.642 18.2101 167.57 18.3172C167.535 18.4243 167.428 18.4958 167.356 18.4958Z" fill="#347AF0"/>
<path d="M172.855 218.774C172.783 218.774 172.676 218.738 172.641 218.667C172.569 218.56 172.605 218.381 172.712 218.31L177.854 214.953C177.961 214.882 178.139 214.918 178.211 215.025C178.282 215.132 178.247 215.31 178.139 215.382L172.998 218.738C172.962 218.774 172.891 218.774 172.855 218.774Z" fill="#347AF0"/>
<path d="M45.9895 190.851C45.9538 190.851 45.9181 190.851 45.9181 190.851C45.7753 190.816 45.7039 190.673 45.7396 190.53L47.5963 184.674C47.632 184.531 47.7748 184.46 47.9177 184.496C48.0605 184.531 48.1319 184.674 48.0962 184.817L46.2395 190.673C46.2038 190.78 46.0966 190.851 45.9895 190.851Z" fill="#347AF0"/>
<path d="M6.4626 124.687C6.35548 124.687 6.28407 124.616 6.21266 124.544L3.49896 119.045C3.42755 118.903 3.49896 118.76 3.60608 118.688C3.74891 118.617 3.89173 118.688 3.96315 118.796L6.67684 124.294C6.74825 124.437 6.67684 124.58 6.56972 124.651C6.53402 124.687 6.49831 124.687 6.4626 124.687Z" fill="#347AF0"/>
<path d="M357.529 178.033C357.422 178.033 357.351 177.997 357.315 177.89L354.066 172.677C353.994 172.534 354.03 172.391 354.137 172.32C354.28 172.248 354.423 172.284 354.494 172.391L357.743 177.604C357.815 177.747 357.779 177.89 357.672 177.961C357.636 178.033 357.601 178.033 357.529 178.033Z" fill="#347AF0"/>
<path d="M295.935 187.816C295.899 187.816 295.864 187.816 295.828 187.781C295.685 187.709 295.65 187.566 295.685 187.424L298.185 181.818C298.256 181.675 298.399 181.639 298.542 181.675C298.685 181.746 298.72 181.889 298.685 182.032L296.185 187.638C296.149 187.745 296.042 187.816 295.935 187.816Z" fill="#347AF0"/>
<path d="M274.404 221.988C274.297 221.988 274.226 221.952 274.19 221.845C274.119 221.702 274.154 221.559 274.297 221.488L279.582 218.417C279.725 218.346 279.867 218.381 279.939 218.524C280.01 218.667 279.974 218.81 279.832 218.881L274.547 221.952C274.476 221.952 274.44 221.988 274.404 221.988Z" fill="#347AF0"/>
<path d="M187.673 158.323C187.602 158.323 187.53 158.287 187.459 158.216L183.603 153.431C183.496 153.324 183.531 153.145 183.638 153.038C183.746 152.931 183.924 152.967 184.031 153.074L187.888 157.858C187.995 157.966 187.959 158.144 187.852 158.251C187.78 158.287 187.745 158.323 187.673 158.323Z" fill="#347AF0"/>
<path d="M304.648 144.861C304.54 144.861 304.433 144.79 304.398 144.718C304.326 144.576 304.398 144.433 304.54 144.361L310.146 141.898C310.289 141.826 310.432 141.898 310.503 142.04C310.575 142.183 310.503 142.326 310.361 142.398L304.755 144.861C304.719 144.826 304.683 144.861 304.648 144.861Z" fill="#347AF0"/>
<path d="M366.205 76.5903C366.17 76.5903 366.134 76.5903 366.098 76.5546C365.956 76.4832 365.884 76.3404 365.956 76.1975L368.276 70.5202C368.348 70.3774 368.491 70.306 368.633 70.3774C368.776 70.4488 368.848 70.5916 368.776 70.7344L366.455 76.4118C366.384 76.5189 366.313 76.5903 366.205 76.5903Z" fill="#347AF0"/>
<path d="M286.687 54.5952C286.58 54.5952 286.473 54.5238 286.437 54.4524L283.866 48.8822C283.795 48.7393 283.866 48.5965 284.009 48.5251C284.152 48.4537 284.295 48.5251 284.366 48.6679L286.937 54.2381C287.008 54.381 286.937 54.5238 286.794 54.5952C286.758 54.5595 286.723 54.5952 286.687 54.5952Z" fill="#347AF0"/>
<path d="M372.525 20.8526C372.49 20.8526 372.454 20.8526 372.418 20.8169L366.848 18.2103C366.705 18.1389 366.67 17.996 366.705 17.8532C366.777 17.7104 366.919 17.6747 367.062 17.7104L372.633 20.317C372.775 20.3884 372.811 20.5312 372.775 20.674C372.74 20.7812 372.633 20.8526 372.525 20.8526Z" fill="#347AF0"/>
<path d="M58.8441 39.8483C59.4948 39.8483 60.0224 39.3208 60.0224 38.67C60.0224 38.0192 59.4948 37.4917 58.8441 37.4917C58.1933 37.4917 57.6658 38.0192 57.6658 38.67C57.6658 39.3208 58.1933 39.8483 58.8441 39.8483Z" fill="#347AF0"/>
<path d="M230.307 41.2767C229.521 41.2767 228.878 40.634 228.878 39.8484C228.878 39.0629 229.521 38.4202 230.307 38.4202C231.092 38.4202 231.735 39.0629 231.735 39.8484C231.735 40.634 231.092 41.2767 230.307 41.2767ZM230.307 38.9201C229.807 38.9201 229.414 39.3128 229.414 39.8127C229.414 40.3126 229.807 40.7054 230.307 40.7054C230.807 40.7054 231.199 40.3126 231.199 39.8127C231.199 39.3128 230.807 38.9201 230.307 38.9201Z" fill="#347AF0"/>
<path d="M146.004 197.778C145.218 197.778 144.575 197.136 144.575 196.35C144.575 195.565 145.218 194.922 146.004 194.922C146.789 194.922 147.432 195.565 147.432 196.35C147.432 197.136 146.789 197.778 146.004 197.778ZM146.004 195.422C145.504 195.422 145.111 195.815 145.111 196.314C145.111 196.814 145.504 197.207 146.004 197.207C146.504 197.207 146.896 196.814 146.896 196.314C146.896 195.815 146.504 195.422 146.004 195.422Z" fill="#347AF0"/>
<path d="M372.526 222.773C371.74 222.773 371.098 222.13 371.098 221.345C371.098 220.559 371.74 219.917 372.526 219.917C373.311 219.917 373.954 220.559 373.954 221.345C373.954 222.13 373.311 222.773 372.526 222.773ZM372.526 220.452C372.026 220.452 371.633 220.845 371.633 221.345C371.633 221.845 372.026 222.237 372.526 222.237C373.026 222.237 373.419 221.845 373.419 221.345C373.419 220.845 373.026 220.452 372.526 220.452Z" fill="#347AF0"/>
<path d="M98.5102 98.1297C98.0052 97.7732 97.0288 98.1621 95.8842 99.1667C95.7495 99.2639 95.6148 99.3935 95.5138 99.5231C94.8405 100.042 93.9989 100.917 92.9216 102.051C92.7532 102.245 92.6186 102.375 92.5176 102.504C91.2046 103.865 89.3529 104.838 87.0636 105.421C86.8953 105.453 86.6933 105.518 86.4576 105.551C86.3566 105.551 86.2893 105.615 86.2556 105.68V105.713C86.2556 105.713 86.2556 105.713 86.2556 105.745L84.0337 112.323C84 112.356 84 112.388 84 112.453C84 112.583 84.101 112.712 84.2693 112.712H84.303C84.9763 112.68 85.616 112.583 86.2556 112.42C86.6933 112.323 87.0973 112.161 87.4676 111.999C88.4439 111.578 89.2183 111.059 89.8243 110.541C92.0799 106.004 95.0762 101.889 98.7121 98.3565C98.6111 98.2593 98.5775 98.1945 98.5102 98.1297Z" fill="#347AF0"/>
<path d="M294.512 98.8425V98.7428L294.376 98.6764C294.376 98.6764 294.376 98.6764 294.342 98.6432L294.035 98.5103C289.977 96.916 286.772 95.7535 285.647 95.4877C284.76 95.2552 284.147 95.3217 283.84 95.6538C283.669 95.8531 283.635 96.0856 283.635 96.152C283.567 96.916 284.999 97.5803 286.397 98.0785L286.124 98.1117C285.408 98.2114 284.726 98.3442 284.078 98.4439C284.044 98.4439 284.01 98.4439 284.01 98.4771C281.93 98.8092 280.26 99.0418 279.169 99.1746C278.759 99.241 277.839 99.3407 277.43 99.7725C277.361 99.8389 277.293 99.9386 277.259 100.038C277.259 100.071 277.225 100.105 277.225 100.138C277.157 100.337 277.191 100.669 277.396 100.935C277.6 101.168 278.112 101.201 279.032 101.101C279.407 101.068 279.816 101.001 280.226 100.935C280.942 100.802 281.692 100.636 282.476 100.47C282.987 100.337 283.431 100.237 283.737 100.138C282.851 100.636 280.566 101.633 279.407 102.131C279.271 102.197 279.134 102.264 279.032 102.297C278.043 102.762 277.566 102.994 277.498 103.426C277.464 103.692 277.498 104.024 277.771 104.257C278.043 104.489 278.555 104.555 280.873 103.559C281.283 103.393 281.76 103.16 282.271 102.928C283.26 102.463 284.078 102.031 284.59 101.765C283.328 102.596 282.271 103.293 281.248 103.958C281.078 104.057 280.942 104.157 280.771 104.257C280.26 104.589 279.544 105.054 279.544 105.718C279.544 106.017 279.714 106.415 279.987 106.548C280.498 106.814 281.18 106.349 282.169 105.718C282.305 105.618 282.442 105.519 282.578 105.452C284.76 103.991 285.681 103.293 285.783 103.393C285.92 103.526 284.556 105.153 284.419 105.286C284.01 105.751 283.669 106.117 283.362 106.449C282.612 107.279 282.203 107.711 282.34 108.176C282.408 108.442 282.646 108.641 282.919 108.707C283.362 108.807 283.772 108.475 284.419 107.844C284.794 107.478 285.204 107.013 285.749 106.482C286.295 105.917 286.943 105.319 287.727 104.688C288.204 104.688 288.818 104.655 289.466 104.589C289.977 104.522 290.455 104.423 290.966 104.29C291.784 104.057 292.568 103.791 293.319 103.393C293.319 103.393 293.353 103.393 293.353 103.36C293.353 103.36 293.83 103.16 294.103 102.994C294.137 102.994 294.137 102.961 294.171 102.961L294.342 102.861L294.58 98.9089C294.512 98.9089 294.512 98.8757 294.512 98.8425Z" fill="#347AF0"/>
<path d="M133.97 180.604C161.145 180.604 183.174 158.575 183.174 131.4C183.174 104.226 161.145 82.1965 133.97 82.1965C106.796 82.1965 84.7668 104.226 84.7668 131.4C84.7668 158.575 106.796 180.604 133.97 180.604Z" fill="#99B9EE"/>
<path d="M133.97 173.713C157.339 173.713 176.283 154.769 176.283 131.4C176.283 108.032 157.339 89.0881 133.97 89.0881C110.602 89.0881 91.6582 108.032 91.6582 131.4C91.6582 154.769 110.602 173.713 133.97 173.713Z" fill="#E0E9F8"/>
<path d="M340.64 87.5883L338.605 84.3748C338.712 84.2676 338.819 84.1605 338.89 84.0177C339.712 82.9822 340.247 81.8039 340.461 80.5899C340.89 78.2332 340.211 74.9839 337.783 73.3057C334.963 71.4133 331.428 72.5559 329.214 74.127C328.607 74.5555 328.071 75.0554 327.607 75.5552C327.571 75.591 327.536 75.6267 327.5 75.6624C325.75 77.7333 324.608 81.0898 326 83.8749C327.286 86.4457 330.071 87.1956 330.357 87.267C330.535 87.3027 330.678 87.3384 330.856 87.3741C331.035 87.4098 331.249 87.4098 331.463 87.4455L333.534 90.8376C333.57 90.909 333.677 90.9805 333.749 90.9805C333.784 90.9805 333.856 90.9805 333.891 90.9448C333.927 90.9448 333.927 90.909 333.927 90.909L340.497 87.9454C340.711 87.874 340.747 87.7312 340.64 87.5883Z" fill="#347AF0"/>
<path d="M340.569 80.6258C340.997 78.2691 340.319 75.0198 337.891 73.3416C335.07 71.4492 331.535 72.5918 329.321 74.1629C328.714 74.5913 328.179 75.0912 327.714 75.5911C327.679 75.6268 327.643 75.6625 327.607 75.6982C327.607 75.6982 327.607 75.734 327.572 75.734L328.214 75.8054C330.285 76.091 332.32 76.341 334.391 76.6266L335.213 79.376L335.284 79.6617C335.713 79.1975 336.32 78.8761 336.998 78.8761C338.283 78.8761 339.319 79.9116 339.319 81.1971C339.319 81.8041 339.069 82.2683 338.998 82.4111C338.426 83.3394 337.427 83.4823 337.284 83.518C337.319 83.5894 337.355 83.6965 337.355 83.7679C337.605 84.4821 337.819 85.1605 338.069 85.8746L338.819 85.6604L339.355 85.5175L338.605 84.3392C338.712 84.2321 338.819 84.125 338.891 83.9822C339.819 83.0181 340.354 81.8398 340.569 80.6258Z" fill="#0D1F3C"/>
<path d="M75.3853 171.944C73.4981 158.778 72.6791 155.699 70.8631 151.983C69.2964 148.797 66.519 144.657 60.9643 136.41L60.1097 135.171C58.721 133.119 57.3323 131.066 55.9436 129.084C55.8368 128.942 55.7656 128.836 55.6587 128.694C55.6231 128.659 55.5875 128.624 55.5163 128.588H55.4807L35.4337 125.757C35.3625 125.722 35.2913 125.686 35.22 125.686C35.22 125.686 35.1844 125.686 35.1844 125.722L35.0064 125.686L35.042 125.828C35.042 125.863 35.0064 125.898 35.0064 125.934C32.8343 125.58 30.6267 125.261 28.4546 124.907C19.8732 147.877 11.2918 170.918 2.6748 193.923C3.17331 194.029 3.67181 194.171 4.20593 194.277C7.01892 194.949 9.7963 195.586 12.6093 196.259C13.2502 196.401 13.8556 196.542 14.4965 196.684C23.6832 178.35 32.87 159.982 42.0567 141.648C46.0803 147.169 51.7419 153.151 58.4361 158.92L65.9137 200.931C65.9493 201.072 66.0561 201.143 66.163 201.143L73.3913 201.072L78.6256 201.002C78.6968 201.002 78.768 200.966 78.8392 200.895C78.8748 200.825 78.9104 200.754 78.9104 200.683C77.949 191.056 76.7384 181.394 75.3853 171.944Z" fill="#A2B7FC"/>
<path d="M77.0739 70.1424C76.6694 68.7357 75.9617 67.4629 74.9844 66.4915C73.2319 64.6493 70.8728 63.9124 68.7496 64.5153C66.222 65.2187 64.4695 67.6973 64.301 70.7118C64.2673 70.7118 64.2673 70.7118 64.2336 70.7118H64.1999C64.0988 70.7453 64.0314 70.7788 63.964 70.8123C63.8966 70.8458 63.7955 70.8793 63.7281 70.9463C63.6606 70.9798 63.5595 71.0468 63.4921 71.0803C62.9529 71.4822 62.6159 72.0851 62.5485 72.7215C62.4811 73.3579 62.6496 73.9608 63.054 74.4633C63.0877 74.4967 63.1214 74.5637 63.1888 74.5972L62.1441 76.7074C62.1104 76.7409 62.1104 76.7744 62.1104 76.8079L62.0093 77.0758L68.0756 80.6263L69.0529 78.8846C70.0302 79.2865 71.4794 79.6549 72.996 79.2195C76.1302 78.3151 78.1523 73.8604 77.0739 70.1424Z" fill="#347AF0"/>
<path d="M248.767 141.22C245.66 141.22 242.589 140.934 239.554 140.363C230.913 138.72 222.594 134.792 214.81 128.615C214.738 128.579 214.703 128.472 214.703 128.401C214.703 128.329 214.738 128.222 214.81 128.187C214.881 128.115 223.129 122.295 235.341 119.688C246.624 117.26 263.692 117.153 280.974 130.329C281.045 130.365 281.081 130.472 281.081 130.543C281.081 130.615 281.045 130.722 280.974 130.757C280.903 130.829 272.833 137.042 260.693 139.827C256.693 140.755 252.694 141.22 248.767 141.22Z" fill="white"/>
<path d="M135.269 140.136C132.17 140.136 129.106 139.859 126.078 139.306C117.456 137.715 109.156 133.911 101.389 127.929C101.318 127.894 101.282 127.79 101.282 127.721C101.282 127.652 101.318 127.548 101.389 127.514C101.46 127.444 109.69 121.807 121.874 119.283C133.132 116.931 150.161 116.828 167.404 129.588C167.475 129.623 167.511 129.727 167.511 129.796C167.511 129.865 167.475 129.969 167.404 130.003C167.333 130.073 159.281 136.09 147.168 138.787C143.178 139.686 139.188 140.136 135.269 140.136Z" fill="white"/>
<path d="M247.874 140.97C254.027 140.97 259.015 135.982 259.015 129.829C259.015 123.676 254.027 118.689 247.874 118.689C241.722 118.689 236.734 123.676 236.734 129.829C236.734 135.982 241.722 140.97 247.874 140.97Z" fill="#347AF0"/>
<path d="M189.003 74.8212C178.872 77.2079 172.592 87.2612 175.096 97.0253C177.153 96.519 179.209 96.0489 181.302 95.5426C179.695 89.1417 183.695 82.5962 190.2 81.0774C196.705 79.5224 203.396 83.5365 205.004 89.9373C207.322 89.3949 209.677 88.8163 211.995 88.2738C209.49 78.4736 199.135 72.3982 189.003 74.8212Z" fill="#99B9EE"/>
<path d="M57.1842 90.4486C57.1842 90.4486 56.1242 98.1154 56.6371 105.406C57.0817 111.772 57.492 114.955 59.3386 116.598C59.6122 116.837 59.92 117.077 60.2277 117.248C62.4505 118.583 65.6308 119.165 76.3002 115.879C78.2152 115.297 80.7799 114.441 83.8234 113.312C84.1996 111.772 86.354 105.371 86.9353 104.037C83.9602 104.584 80.9851 105.132 77.9758 105.679C74.4193 106.33 70.8971 106.946 67.3748 107.528C67.4774 106.706 67.58 105.645 67.751 104.379C67.9562 102.736 68.1272 101.435 68.1956 100.682C68.1956 100.682 68.2298 100.374 68.2639 100.101C69.1873 93.1868 70.8971 87.5736 68.1614 82.953C68.0588 82.8161 67.8536 82.4738 67.5458 82.0631C67.751 81.584 67.9904 81.0706 68.1956 80.5914C66.2122 79.3935 64.1946 78.1613 62.2112 76.9634C61.9718 77.3741 61.7324 77.819 61.493 78.2298C60.0568 78.3324 58.0392 78.6063 55.7822 79.4961C48.3957 82.4054 44.9761 89.4218 42.6165 94.1109C38.0341 103.249 32.9047 113.072 26.7493 124.709C31.0922 125.394 35.4352 126.044 39.8466 126.695C45.6258 127.55 51.3366 128.372 57.0133 129.125C57.5604 127.003 58.1418 124.881 58.7231 122.724C59.236 120.876 59.7148 119.028 60.2277 117.18" fill="#0D1F3C"/>
<path d="M93.0868 208.856C89.3019 210.142 66.6997 209.892 66.6997 209.892L67.6638 200.858L76.0905 200.751C77.0546 201.715 79.197 202.679 83.6603 203.179C94.9436 204.464 96.8717 207.571 93.0868 208.856Z" fill="#0D1F3C"/>
<path d="M28.8866 208.463C28.708 209.07 27.8511 209.427 26.4942 209.641C22.4951 210.32 19.5315 209.356 19.5315 209.356C10.9619 206.642 0 201.107 0 201.107L3.92772 194.216C6.74853 194.894 9.53364 195.537 12.3545 196.216C12.9258 197.18 14.4968 198.644 18.2103 201.786C19.9599 203.286 20.8526 204 21.2454 204.214C23.9591 205.535 25.8872 204.642 27.7797 206.356C27.9939 206.535 29.1722 207.606 28.8866 208.463Z" fill="#0D1F3C"/>
<path d="M343.71 204.063C342.782 204.67 341.354 205.455 339.461 205.848C336.962 206.348 335.783 205.705 334.212 206.312C332.963 206.776 331.427 208.026 330.32 211.561C335.783 211.561 340.175 211.561 343.353 211.597C344.282 211.597 346.71 211.668 349.995 211.668C352.137 211.668 353.887 211.633 355.065 211.633C354.994 209.669 354.922 207.741 354.851 205.777C351.137 205.17 347.424 204.634 343.71 204.063Z" fill="#0D1F3C"/>
<path d="M390.843 199.457C390.736 203.991 389.45 205.67 388.308 206.312C386.737 207.205 385.201 206.42 383.416 207.526C381.809 208.526 381.131 210.383 380.809 211.704C384.094 211.704 387.344 211.668 390.629 211.668C393.021 210.454 395.449 209.24 397.913 208.062C400.162 206.955 402.376 205.92 404.59 204.884C403.983 203.313 401.019 196.707 400.269 195.101C397.091 196.6 393.985 198.029 390.843 199.457Z" fill="#0D1F3C"/>
<path d="M368.741 126.151C369.098 126.044 369.42 125.901 369.777 125.794C369.777 125.794 391.094 174.212 401.449 197.85C398.128 198.707 394.807 199.6 391.486 200.457C380.417 182.389 369.134 164.464 357.708 146.647C356.958 145.468 356.208 144.29 355.423 143.112C353.245 139.72 351.031 136.328 348.817 132.935L368.741 126.151Z" fill="#0D1F3C"/>
<path d="M369.741 125.794C369.42 129.115 368.456 133.185 366.135 137.149C363.742 141.219 360.529 144.183 358.958 145.54C358.529 145.897 358.101 146.29 357.672 146.647C352.816 150.824 346.889 155.823 339.962 161.322C342.318 168.642 352.245 198.386 354.744 205.705C352.923 205.527 351.031 205.313 349.103 205.063C347.139 204.813 345.246 204.527 343.425 204.241C342.568 202.706 341.354 200.457 339.89 197.707C337.355 192.887 335.82 189.887 334.106 186.424C325.179 168.356 323.822 162.679 324.215 159.18C324.322 158.394 324.501 157.787 324.536 157.609C325.786 152.61 328.643 148.968 338.998 140.113C341.069 138.363 343.747 136.113 346.924 133.578" fill="#0D1F3C"/>
<path d="M343.435 135.812C343.329 135.812 343.222 135.741 343.187 135.635L333.407 107.267C332.415 108.259 331.352 109.215 330.254 110.1C326.392 113.323 322.742 116.333 318.419 116.936C316.328 117.219 314.911 116.688 308.923 114.421L308.391 114.209C303.395 112.332 298.47 110.242 293.722 108.082C293.616 108.046 293.58 107.94 293.58 107.834L293.757 98.3427C293.757 98.2719 293.793 98.201 293.864 98.1302C293.934 98.0948 294.005 98.0594 294.076 98.0948C302.332 100.255 310.553 102.38 318.809 104.505C321.537 101.707 324.407 98.9448 327.348 96.3595L327.384 96.3241C333.407 90.941 336.419 88.2495 338.581 87.8245C347.049 86.16 355.908 97.7052 362.357 106.134L362.569 106.417C366.998 112.19 370.79 118.494 373.802 125.187C373.837 125.258 373.837 125.329 373.802 125.4C373.766 125.471 373.731 125.506 373.66 125.541L365.227 128.41C356.652 131.314 344.533 135.458 343.541 135.812C343.506 135.812 343.47 135.812 343.435 135.812Z" fill="#A2B7FC"/>
<path d="M220.023 172.498H161C160.858 172.498 160.715 172.391 160.715 172.213C160.715 172.034 160.822 171.927 161 171.927H220.023C220.166 171.927 220.309 172.034 220.309 172.213C220.309 172.391 220.166 172.498 220.023 172.498Z" fill="#99B9EE"/>
<path d="M274.047 172.498C273.904 172.498 273.797 172.391 273.762 172.248C273.726 172.106 273.869 171.963 274.012 171.963L316.181 171.891C316.324 171.891 316.431 171.998 316.467 172.141C316.502 172.284 316.36 172.427 316.217 172.427L274.047 172.498Z" fill="#99B9EE"/>
<path d="M106.976 172.499H85.0166C84.8738 172.499 84.731 172.392 84.731 172.213C84.731 172.035 84.8381 171.928 85.0166 171.928H106.976C107.119 171.928 107.262 172.035 107.262 172.213C107.262 172.392 107.119 172.499 106.976 172.499Z" fill="#99B9EE"/>
<path d="M68.617 63.6022C68.0263 63.7613 67.5095 64.0398 66.9927 64.3979C66.7343 64.5571 66.5128 64.7162 66.2913 64.8754C66.2543 64.9152 66.2174 64.9152 66.1805 64.955C66.0698 65.0345 65.9959 65.1141 65.8852 65.1937C65.8483 65.2335 65.8113 65.2733 65.7375 65.313C65.4422 65.5916 65.1838 65.9099 64.9253 66.2282C64.8884 66.3078 64.8146 66.3873 64.7777 66.4271C64.7038 66.5067 64.6669 66.6261 64.5931 66.7056C64.5193 66.7852 64.4823 66.9046 64.4085 66.9842C64.3716 67.0637 64.2978 67.1433 64.2608 67.2229C64.1501 67.382 64.0763 67.581 64.0024 67.7401C63.9655 67.8197 63.9286 67.8993 63.8917 67.9789C63.8178 68.0982 63.7809 68.2574 63.7071 68.3767C63.6702 68.4563 63.6333 68.5359 63.6333 68.6155C63.5594 68.7746 63.5225 68.9338 63.4487 69.1327C63.4487 69.1725 63.4118 69.2123 63.4118 69.2521C63.3379 69.451 63.301 69.6898 63.2272 69.9285C63.2272 70.0081 63.1903 70.0478 63.1903 70.1274C63.1533 70.2866 63.1164 70.4855 63.0795 70.6447C63.0795 70.7243 63.0426 70.8038 63.0426 70.8436C63.0057 71.0823 62.9688 71.3211 62.9688 71.5598C63.0057 71.52 63.0795 71.4802 63.1164 71.4404C63.1533 71.4007 63.1903 71.4007 63.2641 71.3609H63.301C63.4118 71.2813 63.5594 71.2415 63.7071 71.2017C63.7809 71.1619 63.8178 71.1619 63.8917 71.1619C64.0024 71.1221 64.1132 71.1221 64.2239 71.1221C64.2239 71.1221 64.2239 71.1221 64.2608 71.1221C64.2978 71.1221 64.3716 71.1221 64.4085 71.1221C64.4823 71.1221 64.5562 71.1221 64.63 71.1221C65.6637 71.2415 66.4758 72.0771 66.6604 73.1513C66.6973 73.3901 66.6973 73.6686 66.6973 73.9073C67.1403 73.1115 68.7278 70.3662 69.06 69.8887C69.5768 69.9285 71.3119 70.0478 73.047 68.8542C73.1947 68.7348 73.3424 68.6155 73.49 68.4961C73.5269 68.4563 73.5639 68.4165 73.6377 68.3767C73.7115 68.2972 73.8223 68.2176 73.8961 68.138C73.933 68.0982 73.9699 68.0584 74.0438 67.9789C74.1176 67.8993 74.1914 67.8197 74.2653 67.7401C74.3022 67.7003 74.3391 67.6606 74.376 67.581C74.4499 67.5014 74.4868 67.4218 74.5606 67.3422C74.5975 67.3025 74.6344 67.2627 74.6714 67.1831C74.7083 67.1035 74.7452 67.0239 74.819 66.9842C74.8559 66.9444 74.8929 66.9046 74.8929 66.825C74.9298 66.7852 74.9667 66.7056 74.9667 66.6658C75.0036 66.5863 75.0774 66.5067 75.1144 66.3873C75.1144 66.3873 75.1144 66.3475 75.1513 66.3475C75.1513 66.3078 75.1882 66.268 75.1882 66.268C75.2251 66.2282 75.2251 66.1884 75.262 66.1486C75.2989 66.1088 75.2989 66.069 75.2989 66.0292L75.4466 65.7109C73.49 63.7215 70.9428 62.886 68.617 63.6022Z" fill="#0D1F3C"/>
<path d="M122.384 129.142C122.384 134.167 126.088 138.384 131.142 139.684C133.148 139.824 135.155 139.859 137.199 139.789C142.523 138.665 146.459 134.308 146.459 129.107C146.459 124.117 142.794 119.901 137.739 118.565C135.579 118.425 133.496 118.39 131.489 118.46C126.281 119.655 122.384 123.977 122.384 129.142Z" fill="#347AF0"/>
</svg>
